<?xml version="1.0" encoding="UTF-8"?>
<svg id="Layer_1" xmlns="http://www.w3.org/2000/svg" xmlns:xlink="http://www.w3.org/1999/xlink" version="1.1" viewBox="0 0 504 72">
  <!-- Generator: Adobe Illustrator 29.6.1, SVG Export Plug-In . SVG Version: 2.1.1 Build 9)  -->
  <defs>
    <style>
      .st0 {
        fill: none;
      }

      .st1 {
        fill: #fff;
      }

      .st2 {
        fill: #839097;
      }

      .st3 {
        display: none;
      }

      .st4 {
        clip-path: url(#clippath);
      }
    </style>
    <clipPath id="clippath">
      <rect class="st0" x="-3.5" y="-1.8" width="508.5" height="76.28"/>
    </clipPath>
  </defs>
  <g class="st3">
    <path class="st2" d="M48.8,20.5c-1,1-1.6,2.2-1.8,2.5l-13.2,26.2c-.7,1.4-1.3,1.9-2.4,2.4-1.1.6-2.1,1-3.5,1.1,1.1-.2,2.2-.8,2.9-1.4.7-.6,1.7-1.8,2.1-2.7l1.3-2.6c-.7-1.4-1.3-2.9-1.9-4.3-1.4-3.1-2.7-6.2-4.1-9.2-3-6.8-3.6-8.6-4.7-10.7-.3-.6-.4-.9-1.1-1.4-.6-.5-1.4-.9-2.1-1.1,1.6.2,2.2.2,2.5.2h.6c1.1,0,2.9-.1,3.3-.2-.2.3-.8,1-.8,1.7,0,.2.1.5.2.8.5,1.4,1.1,2.9,3.9,9.4,1.7,4.1,3.4,7.9,5.4,12.5l10-19.7c.8-1.5,1.1-2.2,1.1-2.8,0-.7-.5-1.2-1.1-1.8.7.1,1.9.2,2.6.2h.3c.4,0,1.7-.1,2.4-.2-.8.2-1.4.7-1.9,1.1"/>
    <path class="st2" d="M76.1,21.5c3.3,2.7,5.4,7.4,5.4,11.8,0,4.1-1.7,9-6.4,12.1-2.3,1.5-4.6,2.2-7.4,2.2s-5.7-.7-8.2-2.4c-3.9-2.7-6.1-7.3-6.1-12.3s2.3-9.2,5.8-11.6c2.6-1.8,5.6-2.6,8.2-2.6,3.3-.1,6.4,1,8.7,2.8M60.1,21.9c-1.9,1.6-4.2,4.9-4.2,10.1,0,5.5,2.5,9.7,5,11.8,2.4,2.1,5.1,2.8,7.7,2.8,3.7,0,5.8-1.5,7.3-3.2,2.5-2.8,3.3-6.1,3.3-9.3,0-4.5-2.2-9.4-5.3-12.1-2.2-1.9-4.6-2.6-6.9-2.6-2.4,0-5,.9-6.9,2.5"/>
    <path class="st2" d="M113.6,20.4c-.3.8-.4,1.6-.4,2.3v21.1c0,.4,0,1.2.4,2,.2.5.5.9.9,1.1-.3,0-1.3-.2-2-.2h-.5c-.8,0-1.7.1-2.2.2.9-.3,1-1.2,1-2.4v-.7c-.3.2-1.7,1.1-3.2,1.8-2.4,1.2-4.7,1.5-6.4,1.5-.7,0-3.1,0-5.3-1.3-4-2.4-4.5-6.8-4.5-9.3v-13.8c0-1.3-.5-2-.6-2.3-.4-.5-.9-.9-1.3-1.2.4,0,1.7.2,2.7.2h.3c.6,0,1.5,0,2.4-.2-.2.3-.5.7-.7,1.1-.2.9-.2,1.7-.2,2.4v14c0,3.7,1.4,6,2.8,7.3,1.7,1.6,4.1,2.3,6.1,2.3,1.7,0,3.3-.6,4.6-1.1,1.2-.5,2.5-1.2,3.5-1.9v-20.6c0-.9-.1-1.5-.3-2.2-.2-.6-.4-1-.9-1.3.2,0,1.4.2,2,.2h.5c.9,0,1.7,0,2.5-.2-.6.3-.9.6-1.2,1.2"/>
    <path class="st2" d="M148.6,20.5c-.4.7-.4,1.7-.4,2.7v24.7l-21-24.9v21.4c0,.3,0,1,.4,1.7.2.3.6.7,1.1.9-1.2-.2-1.7-.2-1.9-.2h-.5c-.6,0-1.7.1-2.3.2.4-.2.9-.7,1.1-1.1.3-.4.5-1.1.5-2v-21.2c0-.7,0-1.5-.4-2.1s-1.2-1.1-2-1.3c1,.1,1.7.2,2.8.2h.6c.8,0,1.3,0,2.2-.2-.1.2-.2.5-.2.8,0,.7.4,1.5.8,2,.5.7,1.1,1.4,2,2.4,10.1,11.7,4.7,5.9,11.5,13.7,1.5,1.7,2.4,2.7,3.6,4v-19.5c0-.9,0-1.7-.4-2.3-.2-.4-.7-.9-1.3-1.1.3,0,1.5.2,2.2.2h.2c.4,0,.8,0,2.3-.2-.3.3-.6.7-.9,1.2"/>
    <path class="st2" d="M183.1,36.6c-.4.5-.5.9-.5,1.7v8.5h-1.3c-1,.2-1.3.2-1.8.3-1.8.3-3.9.4-5.5.4-3.1,0-7.5-.5-10.9-3.7-3.1-2.9-4.4-7.1-4.4-10.8,0-5.3,2.6-9.4,5.6-11.6,2.4-1.8,5.5-2.8,8.9-2.8,4.2,0,6.3,1.3,8,1.9.7.3,1.3.4,1.5.5.1.5,0,.8,0,1.1l-.2,2.4c-.3-1-1-2.1-1.9-2.8-1.3-1.1-4-2.3-7.6-2.3-2.9,0-5.7.8-8,2.9-1.9,1.8-3.9,4.8-3.9,9.7,0,3.2.9,6.7,2.9,9.6,2.9,4.2,6.8,5.1,9.8,5.1,1.1,0,3.7-.2,6.4-1.2v-7.2c0-.3-.1-.9-.4-1.5-.2-.4-.4-.7-.9-1,.2,0,1.4.2,2,.2h.4c.7,0,1.9-.1,2.5-.2-.3.3-.4.5-.7.8"/>
    <rect x="195.3" y="19.5" width="1.3" height="27.3"/>
    <polygon points="210.8 19.5 212.1 19.5 232 44.5 232 19.5 233.3 19.5 233.3 46.8 232.2 46.8 212.1 21.5 212.1 46.8 210.8 46.8 210.8 19.5"/>
    <path d="M246.1,33.2h0c0-7.4,5.3-14.2,13.5-14.2,4.3,0,6.9,1.3,9.7,3.5l-.9,1c-2.4-2-4.9-3.4-8.9-3.4-7.3,0-12.1,6.2-12.1,12.9v.1c0,7.1,4.6,12.9,12.2,12.9,3.8,0,7.1-1.7,9.3-3.5v-8.4h-9.7v-1.3h11v10.2c-2.5,2.3-6.2,4.2-10.6,4.2-8.5,0-13.5-6.4-13.5-14"/>
    <polygon points="283.6 19.5 284.9 19.5 284.9 45.6 301.4 45.6 301.4 46.8 283.6 46.8 283.6 19.5"/>
    <polygon points="312.8 19.5 332 19.5 332 20.7 314.1 20.7 314.1 32.4 330.3 32.4 330.3 33.6 314.1 33.6 314.1 45.6 332.2 45.6 332.2 46.8 312.8 46.8 312.8 19.5"/>
    <polygon points="338.9 19.5 340.4 19.5 351.8 45.3 363.2 19.5 364.5 19.5 352.3 47 351.2 47 338.9 19.5"/>
    <polygon points="351.7 19.5 353.1 19.5 364.5 45.3 375.9 19.5 377.2 19.5 365 47 363.9 47 351.7 19.5"/>
    <path d="M382,33.2h0c0-7.5,5.4-14.2,13.6-14.2s13.6,6.6,13.6,14.1v.1c0,7.4-5.4,14.1-13.6,14.1-8.2-.1-13.6-6.7-13.6-14.1M407.9,33.2h0c0-7-5-13-12.3-13s-12.2,5.9-12.2,12.8v.1c0,6.9,5,12.9,12.3,12.9s12.2-5.9,12.2-12.8"/>
    <path d="M420.8,33.2h0c0-7.5,5.4-14.2,13.6-14.2s13.6,6.6,13.6,14.1v.1c0,7.4-5.4,14.1-13.6,14.1-8.2-.1-13.6-6.7-13.6-14.1M446.7,33.2h0c0-7-5-13-12.3-13s-12.2,5.9-12.2,12.8v.1c0,6.9,5,12.9,12.3,12.9s12.2-5.9,12.2-12.8"/>
    <path d="M460.9,19.5h8.9c8.6,0,14.5,5.9,14.5,13.6v.1c0,7.7-5.9,13.6-14.5,13.6h-8.9v-27.3ZM469.8,45.6c7.8,0,13.1-5.5,13.1-12.4v-.1c0-6.9-5.3-12.4-13.1-12.4h-7.6v24.9h7.6Z"/>
  </g>
  <g class="st4">
    <path class="st1" d="M45.74,20.7c-1.01,1.01-1.61,2.22-1.82,2.52l-13.32,26.43c-.71,1.41-1.31,1.92-2.42,2.42-1.11.61-2.12,1.01-3.53,1.11,1.11-.2,2.22-.81,2.93-1.41.71-.6,1.72-1.82,2.12-2.72l1.31-2.62c-.71-1.41-1.31-2.93-1.92-4.34-1.41-3.13-2.72-6.25-4.14-9.28-3.03-6.86-3.63-8.68-4.74-10.8-.3-.61-.4-.91-1.11-1.41-.61-.5-1.41-.91-2.12-1.11,1.61.2,2.22.2,2.52.2h.61c1.11,0,2.93-.1,3.33-.2-.2.3-.81,1.01-.81,1.72,0,.2.1.5.2.81.5,1.41,1.11,2.93,3.93,9.48,1.72,4.14,3.43,7.97,5.45,12.61l10.09-19.87c.81-1.51,1.11-2.22,1.11-2.83,0-.71-.5-1.21-1.11-1.82.71.1,1.92.2,2.62.2h.3c.4,0,1.72-.1,2.42-.2-.81.2-1.41.71-1.92,1.11"/>
    <path class="st1" d="M57.14,22.11c-1.92,1.61-4.24,4.94-4.24,10.19,0,5.55,2.52,9.79,5.04,11.9,2.42,2.12,5.15,2.83,7.77,2.83,3.73,0,5.85-1.51,7.37-3.23,2.52-2.83,3.33-6.15,3.33-9.38,0-4.54-2.22-9.48-5.35-12.21-2.22-1.92-4.64-2.62-6.96-2.62s-5.04.91-6.96,2.52M73.28,21.71c3.33,2.72,5.45,7.47,5.45,11.91,0,4.14-1.72,9.08-6.46,12.21-2.32,1.51-4.64,2.22-7.47,2.22s-5.75-.71-8.27-2.42c-3.93-2.72-6.15-7.36-6.15-12.41s2.32-9.28,5.85-11.7c2.62-1.82,5.65-2.62,8.27-2.62,3.33-.1,6.46,1.01,8.78,2.83"/>
    <path class="st1" d="M111.11,20.6c-.3.81-.4,1.61-.4,2.32v21.29c0,.4,0,1.21.4,2.02.2.5.5.91.91,1.11-.3,0-1.31-.2-2.02-.2h-.5c-.81,0-1.72.1-2.22.2.91-.3,1.01-1.21,1.01-2.42v-.71c-.3.2-1.72,1.11-3.23,1.82-2.42,1.21-4.74,1.51-6.46,1.51-.71,0-3.13,0-5.35-1.31-4.04-2.42-4.54-6.86-4.54-9.38v-13.92c0-1.31-.5-2.02-.61-2.32-.4-.5-.91-.91-1.31-1.21.4,0,1.72.2,2.72.2h.3c.61,0,1.51,0,2.42-.2-.2.3-.5.71-.71,1.11-.2.91-.2,1.72-.2,2.42v14.12c0,3.73,1.41,6.05,2.83,7.37,1.72,1.61,4.14,2.32,6.15,2.32,1.72,0,3.33-.6,4.64-1.11,1.21-.5,2.52-1.21,3.53-1.92v-20.78c0-.91-.1-1.51-.3-2.22-.2-.61-.4-1.01-.91-1.31.2,0,1.41.2,2.02.2h.5c.91,0,1.72,0,2.52-.2-.61.3-.91.6-1.21,1.21"/>
    <path class="st1" d="M146.43,20.7c-.4.71-.4,1.71-.4,2.72v24.92l-21.19-25.12v21.59c0,.3,0,1.01.4,1.71.2.3.61.71,1.11.91-1.21-.2-1.72-.2-1.92-.2h-.5c-.61,0-1.72.1-2.32.2.4-.2.91-.71,1.11-1.11.3-.4.5-1.11.5-2.02v-21.39c0-.71,0-1.51-.4-2.12-.4-.61-1.21-1.11-2.02-1.31,1.01.1,1.72.2,2.83.2h.61c.81,0,1.31,0,2.22-.2-.1.2-.2.5-.2.81,0,.71.4,1.51.81,2.02.5.71,1.11,1.41,2.02,2.42,10.19,11.8,4.74,5.95,11.6,13.82,1.51,1.72,2.42,2.72,3.63,4.04v-19.67c0-.91,0-1.72-.4-2.32-.2-.4-.71-.91-1.31-1.11.3,0,1.51.2,2.22.2h.2c.4,0,.81,0,2.32-.2-.3.3-.61.71-.91,1.21"/>
    <path class="st1" d="M181.23,36.94c-.4.5-.5.91-.5,1.72v8.58h-1.31c-1.01.2-1.31.2-1.82.3-1.82.3-3.93.4-5.55.4-3.13,0-7.57-.5-11-3.73-3.13-2.93-4.44-7.16-4.44-10.9,0-5.35,2.62-9.48,5.65-11.7,2.42-1.82,5.55-2.83,8.98-2.83,4.24,0,6.36,1.31,8.07,1.92.71.3,1.31.4,1.51.5.1.5,0,.81,0,1.11l-.2,2.42c-.3-1.01-1.01-2.12-1.92-2.83-1.31-1.11-4.04-2.32-7.67-2.32-2.93,0-5.75.81-8.07,2.93-1.92,1.82-3.93,4.84-3.93,9.79,0,3.23.91,6.76,2.93,9.69,2.93,4.24,6.86,5.14,9.89,5.14,1.11,0,3.73-.2,6.46-1.21v-7.26c0-.3-.1-.91-.4-1.51-.2-.4-.4-.71-.91-1.01.2,0,1.41.2,2.02.2h.4c.71,0,1.92-.1,2.52-.2-.3.3-.4.5-.71.81"/>
    <rect x="193.54" y="19.69" width="1.31" height="27.54"/>
    <polygon points="209.18 19.69 210.49 19.69 230.57 44.91 230.57 19.69 231.88 19.69 231.88 47.23 230.77 47.23 210.49 21.71 210.49 47.23 209.18 47.23 209.18 19.69"/>
    <path d="M244.8,33.51h0c0-7.47,5.35-14.33,13.62-14.33,4.34,0,6.96,1.31,9.79,3.53l-.91,1.01c-2.42-2.02-4.94-3.43-8.98-3.43-7.37,0-12.21,6.25-12.21,13.01v.1c0,7.16,4.64,13.01,12.31,13.01,3.83,0,7.16-1.72,9.38-3.53v-8.48h-9.79v-1.31h11.1v10.29c-2.52,2.32-6.26,4.24-10.69,4.24-8.58,0-13.62-6.46-13.62-14.13"/>
    <polygon points="282.63 19.69 283.94 19.69 283.94 46.02 300.59 46.02 300.59 47.23 282.63 47.23 282.63 19.69"/>
    <polygon points="312.09 19.69 331.46 19.69 331.46 20.9 313.4 20.9 313.4 32.7 329.75 32.7 329.75 33.92 313.4 33.92 313.4 46.02 331.67 46.02 331.67 47.23 312.09 47.23 312.09 19.69"/>
    <polygon points="338.43 19.69 339.94 19.69 351.44 45.72 362.94 19.69 364.25 19.69 351.95 47.44 350.84 47.44 338.43 19.69"/>
    <polygon points="351.34 19.69 352.75 19.69 364.25 45.72 375.76 19.69 377.07 19.69 364.76 47.44 363.65 47.44 351.34 19.69"/>
    <path d="M408.04,33.51h0c0-7.06-5.04-13.12-12.41-13.12s-12.31,5.95-12.31,12.91v.1c0,6.96,5.04,13.01,12.41,13.01s12.31-5.95,12.31-12.91M381.91,33.51h0c0-7.57,5.45-14.33,13.72-14.33s13.72,6.66,13.72,14.23v.1c0,7.47-5.45,14.23-13.72,14.23-8.27-.1-13.72-6.76-13.72-14.23"/>
    <path d="M447.19,33.51h0c0-7.06-5.04-13.12-12.41-13.12s-12.31,5.95-12.31,12.91v.1c0,6.96,5.04,13.01,12.41,13.01s12.31-5.95,12.31-12.91M421.06,33.51h0c0-7.57,5.45-14.33,13.72-14.33s13.72,6.66,13.72,14.23v.1c0,7.47-5.45,14.23-13.72,14.23-8.27-.1-13.72-6.76-13.72-14.23"/>
    <path d="M470.49,46.02c7.87,0,13.22-5.55,13.22-12.51v-.1c0-6.96-5.35-12.51-13.22-12.51h-7.67v25.12h7.67ZM461.52,19.69h8.98c8.68,0,14.63,5.95,14.63,13.72v.1c0,7.77-5.95,13.72-14.63,13.72h-8.98v-27.54Z"/>
  </g>
</svg>