<?xml version="1.0" encoding="utf-8"?>
<!-- Generator: Adobe Illustrator 26.2.1, SVG Export Plug-In . SVG Version: 6.00 Build 0)  -->
<svg version="1.1" id="Layer_1" xmlns="http://www.w3.org/2000/svg" xmlns:xlink="http://www.w3.org/1999/xlink" x="0px" y="0px"
	 viewBox="0 0 504 72" style="enable-background:new 0 0 504 72;" xml:space="preserve">
<style type="text/css">
	.st0{fill:#839097;}
</style>
<g>
	<path class="st0" d="M48.8,20.5c-1,1-1.6,2.2-1.8,2.5L33.8,49.2c-0.7,1.4-1.3,1.9-2.4,2.4c-1.1,0.6-2.1,1-3.5,1.1
		c1.1-0.2,2.2-0.8,2.9-1.4c0.7-0.6,1.7-1.8,2.1-2.7l1.3-2.6c-0.7-1.4-1.3-2.9-1.9-4.3c-1.4-3.1-2.7-6.2-4.1-9.2
		c-3-6.8-3.6-8.6-4.7-10.7c-0.3-0.6-0.4-0.9-1.1-1.4c-0.6-0.5-1.4-0.9-2.1-1.1c1.6,0.2,2.2,0.2,2.5,0.2h0.6c1.1,0,2.9-0.1,3.3-0.2
		c-0.2,0.3-0.8,1-0.8,1.7c0,0.2,0.1,0.5,0.2,0.8c0.5,1.4,1.1,2.9,3.9,9.4c1.7,4.1,3.4,7.9,5.4,12.5l10-19.7c0.8-1.5,1.1-2.2,1.1-2.8
		c0-0.7-0.5-1.2-1.1-1.8c0.7,0.1,1.9,0.2,2.6,0.2h0.3c0.4,0,1.7-0.1,2.4-0.2C49.9,19.6,49.3,20.1,48.8,20.5"/>
	<path class="st0" d="M76.1,21.5c3.3,2.7,5.4,7.4,5.4,11.8c0,4.1-1.7,9-6.4,12.1c-2.3,1.5-4.6,2.2-7.4,2.2c-2.9,0-5.7-0.7-8.2-2.4
		c-3.9-2.7-6.1-7.3-6.1-12.3c0-5.2,2.3-9.2,5.8-11.6c2.6-1.8,5.6-2.6,8.2-2.6C70.7,18.6,73.8,19.7,76.1,21.5 M60.1,21.9
		c-1.9,1.6-4.2,4.9-4.2,10.1c0,5.5,2.5,9.7,5,11.8c2.4,2.1,5.1,2.8,7.7,2.8c3.7,0,5.8-1.5,7.3-3.2c2.5-2.8,3.3-6.1,3.3-9.3
		c0-4.5-2.2-9.4-5.3-12.1c-2.2-1.9-4.6-2.6-6.9-2.6C64.6,19.4,62,20.3,60.1,21.9"/>
	<path class="st0" d="M113.6,20.4c-0.3,0.8-0.4,1.6-0.4,2.3v21.1c0,0.4,0,1.2,0.4,2c0.2,0.5,0.5,0.9,0.9,1.1c-0.3,0-1.3-0.2-2-0.2
		h-0.5c-0.8,0-1.7,0.1-2.2,0.2c0.9-0.3,1-1.2,1-2.4v-0.7c-0.3,0.2-1.7,1.1-3.2,1.8c-2.4,1.2-4.7,1.5-6.4,1.5c-0.7,0-3.1,0-5.3-1.3
		c-4-2.4-4.5-6.8-4.5-9.3V22.7c0-1.3-0.5-2-0.6-2.3c-0.4-0.5-0.9-0.9-1.3-1.2c0.4,0,1.7,0.2,2.7,0.2h0.3c0.6,0,1.5,0,2.4-0.2
		c-0.2,0.3-0.5,0.7-0.7,1.1C94,21.2,94,22,94,22.7v14c0,3.7,1.4,6,2.8,7.3c1.7,1.6,4.1,2.3,6.1,2.3c1.7,0,3.3-0.6,4.6-1.1
		c1.2-0.5,2.5-1.2,3.5-1.9V22.7c0-0.9-0.1-1.5-0.3-2.2c-0.2-0.6-0.4-1-0.9-1.3c0.2,0,1.4,0.2,2,0.2h0.5c0.9,0,1.7,0,2.5-0.2
		C114.2,19.5,113.9,19.8,113.6,20.4"/>
	<path class="st0" d="M148.6,20.5c-0.4,0.7-0.4,1.7-0.4,2.7v24.7l-21-24.9v21.4c0,0.3,0,1,0.4,1.7c0.2,0.3,0.6,0.7,1.1,0.9
		c-1.2-0.2-1.7-0.2-1.9-0.2h-0.5c-0.6,0-1.7,0.1-2.3,0.2c0.4-0.2,0.9-0.7,1.1-1.1c0.3-0.4,0.5-1.1,0.5-2V22.7c0-0.7,0-1.5-0.4-2.1
		c-0.4-0.6-1.2-1.1-2-1.3c1,0.1,1.7,0.2,2.8,0.2h0.6c0.8,0,1.3,0,2.2-0.2c-0.1,0.2-0.2,0.5-0.2,0.8c0,0.7,0.4,1.5,0.8,2
		c0.5,0.7,1.1,1.4,2,2.4c10.1,11.7,4.7,5.9,11.5,13.7c1.5,1.7,2.4,2.7,3.6,4V22.7c0-0.9,0-1.7-0.4-2.3c-0.2-0.4-0.7-0.9-1.3-1.1
		c0.3,0,1.5,0.2,2.2,0.2h0.2c0.4,0,0.8,0,2.3-0.2C149.2,19.6,148.9,20,148.6,20.5"/>
	<path class="st0" d="M183.1,36.6c-0.4,0.5-0.5,0.9-0.5,1.7v8.5h-1.3c-1,0.2-1.3,0.2-1.8,0.3c-1.8,0.3-3.9,0.4-5.5,0.4
		c-3.1,0-7.5-0.5-10.9-3.7c-3.1-2.9-4.4-7.1-4.4-10.8c0-5.3,2.6-9.4,5.6-11.6c2.4-1.8,5.5-2.8,8.9-2.8c4.2,0,6.3,1.3,8,1.9
		c0.7,0.3,1.3,0.4,1.5,0.5c0.1,0.5,0,0.8,0,1.1l-0.2,2.4c-0.3-1-1-2.1-1.9-2.8c-1.3-1.1-4-2.3-7.6-2.3c-2.9,0-5.7,0.8-8,2.9
		c-1.9,1.8-3.9,4.8-3.9,9.7c0,3.2,0.9,6.7,2.9,9.6c2.9,4.2,6.8,5.1,9.8,5.1c1.1,0,3.7-0.2,6.4-1.2v-7.2c0-0.3-0.1-0.9-0.4-1.5
		c-0.2-0.4-0.4-0.7-0.9-1c0.2,0,1.4,0.2,2,0.2h0.4c0.7,0,1.9-0.1,2.5-0.2C183.5,36.1,183.4,36.3,183.1,36.6"/>
	<rect x="195.3" y="19.5" width="1.3" height="27.3"/>
	<polygon points="210.8,19.5 212.1,19.5 232,44.5 232,19.5 233.3,19.5 233.3,46.8 232.2,46.8 212.1,21.5 212.1,46.8 210.8,46.8 	"/>
	<path d="M246.1,33.2L246.1,33.2c0-7.4,5.3-14.2,13.5-14.2c4.3,0,6.9,1.3,9.7,3.5l-0.9,1c-2.4-2-4.9-3.4-8.9-3.4
		c-7.3,0-12.1,6.2-12.1,12.9v0.1c0,7.1,4.6,12.9,12.2,12.9c3.8,0,7.1-1.7,9.3-3.5v-8.4h-9.7v-1.3h11v10.2c-2.5,2.3-6.2,4.2-10.6,4.2
		C251.1,47.2,246.1,40.8,246.1,33.2"/>
	<polygon points="283.6,19.5 284.9,19.5 284.9,45.6 301.4,45.6 301.4,46.8 283.6,46.8 	"/>
	<polygon points="312.8,19.5 332,19.5 332,20.7 314.1,20.7 314.1,32.4 330.3,32.4 330.3,33.6 314.1,33.6 314.1,45.6 332.2,45.6 
		332.2,46.8 312.8,46.8 	"/>
	<polygon points="338.9,19.5 340.4,19.5 351.8,45.3 363.2,19.5 364.5,19.5 352.3,47 351.2,47 	"/>
	<polygon points="351.7,19.5 353.1,19.5 364.5,45.3 375.9,19.5 377.2,19.5 365,47 363.9,47 	"/>
	<path d="M382,33.2L382,33.2c0-7.5,5.4-14.2,13.6-14.2c8.3,0,13.6,6.6,13.6,14.1c0,0,0,0,0,0.1c0,7.4-5.4,14.1-13.6,14.1
		C387.4,47.2,382,40.6,382,33.2 M407.9,33.2L407.9,33.2c0-7-5-13-12.3-13c-7.3,0-12.2,5.9-12.2,12.8v0.1c0,6.9,5,12.9,12.3,12.9
		C403,46,407.9,40.1,407.9,33.2"/>
	<path d="M420.8,33.2L420.8,33.2c0-7.5,5.4-14.2,13.6-14.2s13.6,6.6,13.6,14.1c0,0,0,0,0,0.1c0,7.4-5.4,14.1-13.6,14.1
		C426.2,47.2,420.8,40.6,420.8,33.2 M446.7,33.2L446.7,33.2c0-7-5-13-12.3-13c-7.3,0-12.2,5.9-12.2,12.8v0.1c0,6.9,5,12.9,12.3,12.9
		C441.8,46,446.7,40.1,446.7,33.2"/>
	<path d="M460.9,19.5h8.9c8.6,0,14.5,5.9,14.5,13.6v0.1c0,7.7-5.9,13.6-14.5,13.6h-8.9V19.5z M469.8,45.6c7.8,0,13.1-5.5,13.1-12.4
		v-0.1c0-6.9-5.3-12.4-13.1-12.4h-7.6v24.9H469.8z"/>
</g>
</svg>
